<?xml version="1.0" encoding="iso-8859-1"?>
<!-- Uploaded to: SVG Repo, www.svgrepo.com, Generator: SVG Repo Mixer Tools -->
<!DOCTYPE svg PUBLIC "-//W3C//DTD SVG 1.1//EN" "http://www.w3.org/Graphics/SVG/1.1/DTD/svg11.dtd">
<svg fill="#000000" height="800px" width="800px" version="1.1" id="Capa_1" xmlns="http://www.w3.org/2000/svg" xmlns:xlink="http://www.w3.org/1999/xlink" 
	 viewBox="0 0 361.055 361.055" xml:space="preserve">
<path d="M85.949,190.646c1.716,0,3.319-0.48,4.685-1.313c5.786,32.58,25.088,61.252,53.222,77.648
	c14.066,8.199,25.371,11.864,36.656,11.883c0.004,0,0.009,0,0.014,0c0,0,0,0,0.001,0s0.001,0,0.001,0c0.004,0,0.01,0,0.014,0
	c11.284-0.019,22.59-3.684,36.657-11.883c28.133-16.396,47.436-45.069,53.223-77.649c1.365,0.834,2.97,1.314,4.687,1.314
	c4.971,0,9-4.029,9-9s-4.029-9-9-9h-0.004c-1.034,0-2.027,0.175-2.952,0.495c0.056-1.474,0.083-2.951,0.083-4.434
	c0-15.168-2.147-29.274-6.39-42.017c0.333-0.15,0.661-0.323,0.981-0.519c4.244-2.587,5.589-8.125,3.002-12.369
	c-9.066-14.876-20.081-27.081-32.423-36.229c2.159-6.093,3.25-12.472,3.25-19.043C240.655,26.257,213.682,0,180.526,0
	c-33.154,0-60.127,26.257-60.127,58.531c0,6.562,1.092,12.943,3.252,19.042c-12.343,9.148-23.358,21.354-32.425,36.23
	c-2.586,4.244-1.243,9.782,3.002,12.369c0.32,0.194,0.647,0.367,0.98,0.519c-4.242,12.74-6.39,26.847-6.39,42.017
	c0,1.482,0.027,2.96,0.083,4.435c-0.925-0.321-1.919-0.496-2.953-0.496h-0.004c-4.971,0-8.998,4.029-8.998,9
	S80.979,190.646,85.949,190.646z M180.526,18c23.23,0,42.129,18.183,42.129,40.531c0,3.184-0.373,6.302-1.114,9.33
	c-12.859-6.335-26.717-9.678-41.012-9.678c-14.296,0-28.154,3.343-41.014,9.679c-0.742-3.031-1.116-6.15-1.116-9.331
	C138.399,36.183,157.298,18,180.526,18z M180.531,76.184c26.894,0,52.185,14.954,70.234,41.277
	c-0.135,0.088-0.267,0.179-0.396,0.272c-16.695,11.584-42.09,18.243-69.715,18.275c-0.065,0-0.132,0-0.197,0
	c-27.621,0-53.03-6.657-69.777-18.278c-0.128-0.093-0.259-0.183-0.392-0.27C128.339,91.139,153.633,76.184,180.531,76.184z
	 M110.455,138.566c39.32,20.568,100.821,20.57,140.144,0c2.415,9.268,3.636,19.362,3.636,30.142
	c0,34.452-17.664,66.149-46.101,82.723c-11.164,6.507-19.68,9.417-27.607,9.434c-7.928-0.017-16.443-2.927-27.606-9.434
	c-28.437-16.573-46.101-48.271-46.101-82.723C106.819,157.927,108.039,147.832,110.455,138.566z M94.949,252.489
	c0,4.971-4.029,9-9,9s-9-4.029-9-9v-43.132c0-4.971,4.029-9,9-9s9,4.029,9,9V252.489z M284.104,209.357v43.132c0,4.971-4.029,9-9,9
	s-9-4.029-9-9v-43.132c0-4.971,4.029-9,9-9S284.104,204.387,284.104,209.357z M272.646,354.681c-1.184,3.878-4.75,6.374-8.604,6.374
	c-0.87,0-1.755-0.127-2.631-0.395c-33.23-10.146-53.391-26.122-59.922-47.486c-1.453-4.753,1.222-9.784,5.976-11.237
	c4.754-1.457,9.785,1.223,11.237,5.976c4.674,15.288,20.812,27.243,47.965,35.533C271.42,344.896,274.098,349.927,272.646,354.681z
	 M164.977,313.174c-6.531,21.364-26.691,37.341-59.922,47.486c-0.876,0.268-1.761,0.395-2.631,0.395
	c-3.854,0-7.421-2.496-8.604-6.374c-1.452-4.754,1.226-9.784,5.979-11.235c27.153-8.29,43.291-20.245,47.965-35.533
	c1.453-4.753,6.487-7.433,11.237-5.976C163.755,303.39,166.43,308.421,164.977,313.174z M189.529,352.051c0,4.971-4.029,9-9,9
	s-9.002-4.029-9.002-9s4.027-9,8.998-9h0.004C185.5,343.051,189.529,347.08,189.529,352.051z"/>
</svg>