<?xml version="1.0" encoding="iso-8859-1"?>
<!-- Uploaded to: SVG Repo, www.svgrepo.com, Generator: SVG Repo Mixer Tools -->
<svg fill="#000000" height="800px" width="800px" version="1.1" id="Layer_1" xmlns="http://www.w3.org/2000/svg" xmlns:xlink="http://www.w3.org/1999/xlink" 
	 viewBox="0 0 504.326 504.326" xml:space="preserve">
<g>
	<g>
		<g>
			<path d="M344.705,362.108c-9.015-2.199-18.088,3.374-20.253,12.389c-5.405,22.427-16.946,42.958-33.356,59.375
				c-23.779,23.779-55.397,36.881-89.029,36.881c-33.624,0-65.242-13.102-89.029-36.881c-49.085-49.085-49.085-128.957,0-178.05
				c23.787-23.779,55.405-36.881,89.029-36.881c33.633,0,65.251,13.102,89.029,36.881c8.234,8.234,15.276,17.517,20.908,27.598
				c4.541,8.083,14.756,10.97,22.855,6.446c8.091-4.532,10.97-14.764,6.446-22.855c-7.151-12.766-16.057-24.517-26.473-34.925
				c-30.116-30.124-70.161-46.718-112.766-46.718c-37.091,0-72.234,12.607-100.595,35.748l-23.863-23.871l17.509-17.509
				c6.555-6.555,6.555-17.181,0-23.737c-6.555-6.555-17.19-6.555-23.737,0l-17.509,17.509l-9.115-9.115
				c-6.555-6.555-17.19-6.555-23.737,0c-6.564,6.555-6.564,17.181,0,23.737l9.107,9.115l-17.5,17.509
				c-6.564,6.555-6.564,17.181,0,23.737c3.273,3.282,7.571,4.919,11.868,4.919c4.289,0,8.595-1.637,11.868-4.919l17.509-17.509
				l23.946,23.955c-50.386,62.556-46.584,154.616,11.482,212.673c30.124,30.124,70.169,46.718,112.766,46.718
				c42.605,0,82.65-16.594,112.766-46.718c20.791-20.782,35.404-46.802,42.261-75.247
				C359.26,373.347,353.72,364.282,344.705,362.108z"/>
			<path d="M491.705,63.671L473.894,45.86l14.286-14.277c6.555-6.555,6.555-17.181,0-23.737c-6.555-6.555-17.19-6.555-23.745,0
				l-14.277,14.277L432.951,4.916c-6.547-6.555-17.19-6.555-23.737,0c-6.555,6.555-6.555,17.181,0,23.737l17.207,17.207
				l-18.793,18.801c-28.236-22.797-63.11-35.236-99.907-35.236c-42.597,0-82.65,16.585-112.766,46.709
				c-23.317,23.309-38.635,52.744-44.309,85.109c-1.595,9.132,4.507,17.836,13.639,19.431c9.09,1.561,17.836-4.499,19.439-13.639
				c4.465-25.533,16.56-48.758,34.967-67.164c23.779-23.779,55.397-36.872,89.029-36.872c33.624,0,65.251,13.094,89.029,36.872
				s36.872,55.405,36.872,89.029c0,33.633-13.094,65.251-36.872,89.029s-55.405,36.872-89.029,36.872
				c-33.633,0-65.251-13.094-89.029-36.872c-8.738-8.746-16.115-18.642-21.907-29.411c-4.398-8.167-14.579-11.214-22.738-6.832
				c-8.167,4.398-11.222,14.579-6.832,22.738c7.353,13.656,16.686,26.188,27.74,37.242c30.116,30.124,70.169,46.709,112.766,46.709
				c42.597,0,82.642-16.585,112.766-46.709c30.124-30.116,46.71-70.169,46.71-112.766c0-37.091-12.599-72.242-35.739-100.595
				l18.701-18.701l17.811,17.802c3.273,3.282,7.571,4.919,11.868,4.919c4.297,0,8.595-1.637,11.868-4.919
				C498.261,80.852,498.261,70.226,491.705,63.671z"/>
		</g>
	</g>
</g>
</svg>