<?xml version="1.0" encoding="iso-8859-1"?>
<!-- Uploaded to: SVG Repo, www.svgrepo.com, Generator: SVG Repo Mixer Tools -->
<svg fill="#000000" height="800px" width="800px" version="1.1" id="Layer_1" xmlns="http://www.w3.org/2000/svg" xmlns:xlink="http://www.w3.org/1999/xlink" 
	 viewBox="0 0 511.998 511.998" xml:space="preserve">
<g>
	<g>
		<path d="M506.009,65.58c-3.824-3.64-9.045-5.576-14.331-5.317c-37.219,1.842-72.216,11.931-104.024,29.989
			c-25.367,14.402-48.733,33.862-69.448,57.839c-26.123,30.236-41.226,59.657-47.529,73.472
			c1.095-15.658,7.593-59.958,45.533-95.698c3.076-2.896,3.219-7.737,0.322-10.812c-2.896-3.075-7.737-3.217-10.812-0.322
			c-32.862,30.957-44.403,67.04-48.43,89.986c-4.027-22.946-15.568-59.028-48.431-89.986c-3.074-2.897-7.914-2.752-10.812,0.322
			s-2.751,7.915,0.322,10.812c37.812,35.62,44.393,79.739,45.521,95.535c-0.754,0.291-1.489,0.615-2.199,0.985
			c-6.066-13.443-21.247-43.444-47.903-74.294c-20.715-23.977-44.082-43.437-69.448-57.839
			C92.539,72.194,57.541,62.104,20.324,60.263c-5.285-0.255-10.508,1.677-14.333,5.317C2.127,69.256,0,74.219,0,79.551v16.597
			c0,5.597,2.425,10.913,6.652,14.583l9.764,8.475c2.241,1.946,3.527,4.764,3.527,7.733v87.381c0,40.915,31.681,74.546,71.797,77.71
			l-7.772,7.226c-17.246,16.036-26.873,37.836-27.105,61.384c-0.233,23.549,8.961,45.536,25.888,61.911
			c19.496,18.86,45.088,29.208,72.174,29.207c0.35,0,0.704-0.002,1.054-0.005c27.475-0.273,53.271-11.156,72.636-30.648l6.914-6.96
			c1.463,10.017,13.482,16.194,17.33,17.927c0.998,0.449,2.068,0.673,3.139,0.673c1.071,0,2.142-0.224,3.139-0.673
			c3.848-1.732,15.868-7.909,17.33-17.927l6.915,6.96c19.364,19.491,45.159,30.375,72.635,30.648
			c0.353,0.003,0.703,0.005,1.054,0.005c27.085,0,52.679-10.348,72.174-29.207c16.927-16.374,26.12-38.361,25.888-61.91
			c-0.234-23.549-9.859-45.349-27.106-61.385l-7.772-7.226c40.116-3.163,71.797-36.794,71.797-77.71v-87.381
			c0-2.968,1.286-5.787,3.527-7.733l9.763-8.474c4.228-3.669,6.653-8.985,6.653-14.584V79.551
			C512,74.218,509.872,69.256,506.009,65.58z M35.241,214.32v-87.381c0-7.404-3.207-14.432-8.798-19.285l-9.763-8.475
			c-0.88-0.763-1.384-1.867-1.384-3.031V79.551c0-1.488,0.777-2.449,1.24-2.891c0.474-0.45,1.485-1.211,3.032-1.119
			c63.139,3.124,117.75,30.766,162.315,82.163c33.552,38.695,48.483,77.07,48.63,77.453c0.089,0.232,0.189,0.455,0.297,0.673
			c-0.13,0.469-0.265,0.935-0.363,1.417l-100.535-69.595c-3.471-2.403-8.238-1.538-10.642,1.936
			c-2.404,3.472-1.538,8.237,1.936,10.642l93.793,64.928c-24.508-4.753-58.516-11.31-72.696-14.043
			c-4.149-0.806-8.157,1.915-8.957,6.063s1.915,8.158,6.063,8.957c30.452,5.869,73.218,14.128,91.216,17.644
			c-1.896,3.787-2.969,8.055-2.969,12.572v0.65H97.92C63.359,277,35.241,248.882,35.241,214.32z M235.385,392.591l-17.62,17.733
			c-17.203,17.315-40.006,26-62.829,25.998c-22.223-0.002-44.466-8.24-61.548-24.765c-13.879-13.426-21.418-31.456-21.227-50.765
			c0.191-19.309,8.084-37.185,22.226-50.334l19.531-18.161h113.738v6.565c0,7.493,2.944,14.306,7.729,19.361V392.591z
			 M245.303,241.59c0-3.506,2.852-6.357,6.357-6.357h8.679c3.506,0,6.357,2.852,6.357,6.357v0.211c0,3.506-2.852,6.357-6.357,6.357
			h-4.185h-0.309h-4.185c-3.506,0-6.357-2.852-6.357-6.357V241.59z M261.319,395.716v0.005v16.146
			c-0.502,1.106-2.747,2.98-5.323,4.566c-2.553-1.578-4.813-3.463-5.316-4.566v-16.146v-0.005V326.57
			c1.675,0.312,3.401,0.482,5.165,0.482h0.309c1.765,0,3.49-0.17,5.165-0.482V395.716z M269.05,298.862
			c0,7.111-5.784,12.895-12.895,12.895h-0.309c-7.111,0-12.895-5.784-12.895-12.895V276.35c0-7.111,5.784-12.895,12.895-12.895
			h0.309c7.111,0,12.895,5.784,12.895,12.895V298.862z M439.84,360.792c0.191,19.31-7.348,37.338-21.228,50.764
			c-34.626,33.498-90.422,32.944-124.377-1.233l-17.619-17.733v-74.368c4.785-5.055,7.729-11.868,7.729-19.361v-6.565h113.738
			l19.531,18.161C431.756,323.607,439.649,341.482,439.84,360.792z M496.704,96.148L496.704,96.148c0,1.164-0.504,2.268-1.382,3.031
			l-9.765,8.476c-5.589,4.853-8.797,11.881-8.797,19.284v87.381c0,34.562-28.118,62.68-62.68,62.68H284.346v-0.65
			c0-4.496-1.064-8.748-2.944-12.523c17.853-3.488,60.872-11.797,91.464-17.693c4.147-0.799,6.862-4.809,6.063-8.957
			c-0.798-4.147-4.808-6.864-8.957-6.063c-14.181,2.733-48.188,9.289-72.696,14.043l93.793-64.928
			c3.473-2.405,4.34-7.169,1.935-10.642c-2.405-3.472-7.168-4.341-10.642-1.935l-100.781,69.766
			c-0.106-0.538-0.245-1.064-0.39-1.587c0.109-0.219,0.21-0.445,0.299-0.678c0.145-0.379,14.864-38.37,48.291-77.06
			c44.62-51.645,99.344-79.42,162.652-82.55c1.516-0.096,2.557,0.668,3.03,1.119c0.463,0.442,1.24,1.403,1.24,2.891V96.148z"/>
	</g>
</g>
<g>
	<g>
		<path d="M146.049,321.736c-21.93,0-39.771,17.841-39.771,39.771s17.841,39.771,39.771,39.771c21.93,0,39.771-17.841,39.771-39.771
			S167.98,321.736,146.049,321.736z M146.049,385.982c-13.495,0-24.474-10.98-24.474-24.474s10.98-24.474,24.474-24.474
			s24.474,10.98,24.474,24.474S159.544,385.982,146.049,385.982z"/>
	</g>
</g>
<g>
	<g>
		<path d="M365.951,321.736c-21.93,0-39.771,17.841-39.771,39.771s17.841,39.771,39.771,39.771c21.93,0,39.771-17.841,39.771-39.771
			S387.881,321.736,365.951,321.736z M365.951,385.982c-13.495,0-24.474-10.98-24.474-24.474s10.98-24.474,24.474-24.474
			s24.474,10.98,24.474,24.474S379.446,385.982,365.951,385.982z"/>
	</g>
</g>
</svg>