<?xml version="1.0" encoding="utf-8"?>
<!-- Uploaded to: SVG Repo, www.svgrepo.com, Generator: SVG Repo Mixer Tools -->
<svg width="800px" height="800px" viewBox="0 -3.18 20.402 20.402" xmlns="http://www.w3.org/2000/svg">
  <g id="sea" transform="translate(-1.767 -4.965)">
    <path id="primary" d="M3,17.5c1.5,0,1.5.5,3,.5s1.5-.5,3-.5,1.5.5,3,.5,1.5-.5,3-.5,1.5.5,3,.5,1.5-.5,3-.5" fill="none" stroke="#000000" stroke-linecap="round" stroke-linejoin="round" stroke-width="2"/>
    <path id="primary-2" data-name="primary" d="M3,14c1.82-.51,2-2,2.26-3.82.37-2.65,3.92-6.26,8.68-2.68C10.62,8.3,10,11.86,12,12.61s3.79-1.81,6.59.18A4.93,4.93,0,0,0,21,14" fill="none" stroke="#000000" stroke-linecap="round" stroke-linejoin="round" stroke-width="2"/>
  </g>
</svg>