<?xml version="1.0" encoding="iso-8859-1"?>
<!-- Uploaded to: SVG Repo, www.svgrepo.com, Generator: SVG Repo Mixer Tools -->
<!DOCTYPE svg PUBLIC "-//W3C//DTD SVG 1.1//EN" "http://www.w3.org/Graphics/SVG/1.1/DTD/svg11.dtd">
<svg fill="#000000" height="800px" width="800px" version="1.1" id="Capa_1" xmlns="http://www.w3.org/2000/svg" xmlns:xlink="http://www.w3.org/1999/xlink" 
	 viewBox="0 0 261.877 261.877" xml:space="preserve">
<g>
	<path d="M39.303,130.147c0-47.469,29.681-90.156,54.58-117.608c2.782-3.068,2.551-7.812-0.517-10.595
		c-3.068-2.78-7.811-2.552-10.595,0.517C56.099,31.87,24.303,77.894,24.303,130.147c0,52.986,32.6,99.563,59.948,129.306
		c1.479,1.608,3.497,2.424,5.523,2.424c1.814,0,3.634-0.654,5.074-1.979c3.049-2.804,3.248-7.548,0.444-10.597
		C69.75,221.521,39.303,178.301,39.303,130.147z"/>
	<path d="M179.105,2.461c-2.783-3.068-7.526-3.298-10.595-0.517c-3.067,2.783-3.299,7.526-0.517,10.595
		c24.899,27.452,54.58,70.14,54.58,117.608c0,48.153-30.447,91.374-55.989,119.153c-2.804,3.049-2.604,7.793,0.444,10.597
		c1.44,1.325,3.26,1.979,5.074,1.979c2.025,0,4.044-0.815,5.523-2.424c27.349-29.742,59.948-76.319,59.948-129.306
		C237.574,77.894,205.778,31.87,179.105,2.461z"/>
	<path d="M132.388,24.095c-0.847-0.69-2.052-0.69-2.898,0c-9.418,7.671-61.551,52.585-61.551,106.844s52.133,99.173,61.551,106.844
		c0.847,0.69,2.052,0.69,2.898,0c9.418-7.671,61.551-52.585,61.551-106.844S141.805,31.765,132.388,24.095z M122.008,202.95
		c-1.401,1.167-3.104,1.736-4.795,1.736c-2.15,0-4.284-0.92-5.768-2.701c-15.378-18.469-22.604-36.791-22.905-37.563
		c-1.503-3.859,0.408-8.207,4.269-9.71c3.858-1.499,8.202,0.406,9.706,4.26c0.066,0.167,6.717,16.911,20.458,33.415
		C125.623,195.57,125.192,200.3,122.008,202.95z M131.114,219.787c-4.142,0-7.5-3.358-7.5-7.5s3.358-7.5,7.5-7.5
		c4.142,0,7.5,3.358,7.5,7.5S135.256,219.787,131.114,219.787z M163.202,131.794c-8.202-22.11-25.492-38.909-30.729-43.648
		c-0.873-0.79-2.197-0.79-3.071,0c-5.237,4.738-22.527,21.537-30.729,43.648c-0.877,2.365-4.405,1.79-4.411-0.733
		c0-0.041,0-0.082,0-0.123c0-32.989,28.189-60.502,35.14-66.785c0.872-0.788,2.198-0.788,3.07,0
		c6.951,6.283,35.14,33.796,35.14,66.785c0,0.041,0,0.082,0,0.123C167.608,133.584,164.08,134.159,163.202,131.794z"/>
</g>
</svg>