<?xml version="1.0" encoding="iso-8859-1"?>
<!-- Uploaded to: SVG Repo, www.svgrepo.com, Generator: SVG Repo Mixer Tools -->
<svg fill="#000000" height="800px" width="800px" version="1.1" id="Layer_1" xmlns="http://www.w3.org/2000/svg" xmlns:xlink="http://www.w3.org/1999/xlink" 
	 viewBox="0 0 512 512" xml:space="preserve">
<g>
	<g>
		<path d="M256,0C114.84,0,0,114.842,0,256s114.84,256,256,256s256-114.842,256-256S397.16,0,256,0z M256,474.537
			c-120.501,0-218.537-98.036-218.537-218.537S135.499,37.463,256,37.463S474.537,135.499,474.537,256S376.501,474.537,256,474.537z
			"/>
	</g>
</g>
<g>
	<g>
		<path d="M181.073,149.854c-30.986,0-56.195,25.208-56.195,56.195h37.463c0-10.329,8.403-18.732,18.732-18.732
			s18.732,8.403,18.732,18.732h37.463C237.268,175.062,212.059,149.854,181.073,149.854z"/>
	</g>
</g>
<g>
	<g>
		<path d="M330.927,149.854c-30.986,0-56.195,25.208-56.195,56.195h37.463c0-10.329,8.403-18.732,18.732-18.732
			s18.732,8.403,18.732,18.732h37.463C387.122,175.062,361.913,149.854,330.927,149.854z"/>
	</g>
</g>
<g>
	<g>
		<path d="M384.165,340.621l-12.849-22.255c10.078-18.558,15.806-39.806,15.806-62.367h-37.463
			c0,51.643-42.015,93.659-93.659,93.659S162.341,307.643,162.341,256h-37.463c0,71.086,56.859,129.136,127.485,131.07
			l12.837,22.236c12.709,22.008,35.841,34.325,59.598,34.325c11.644,0,23.438-2.96,34.225-9.187
			C391.821,415.508,403.099,373.42,384.165,340.621z M340.293,401.999c-14.907,8.607-34.039,3.482-42.647-11.426l-5.004-8.667
			c20.53-5.984,38.994-16.861,54.038-31.283l5.041,8.73C360.327,374.26,355.201,393.392,340.293,401.999z"/>
	</g>
</g>
</svg>